<?xml version="1.0" standalone="no"?>
<!DOCTYPE svg PUBLIC "-//W3C//DTD SVG 20010904//EN"
 "http://www.w3.org/TR/2001/REC-SVG-20010904/DTD/svg10.dtd">
<svg version="1.0" xmlns="http://www.w3.org/2000/svg"
 width="1024.000000pt" height="1024.000000pt" viewBox="0 0 1024.000000 1024.000000"
 preserveAspectRatio="xMidYMid meet">
<metadata>
Created by potrace 1.11, written by Peter Selinger 2001-2013
</metadata>
<g transform="translate(0.000000,1024.000000) scale(0.100000,-0.100000)"
fill="#000000" stroke="none">
<path d="M5148 10235 c-2 -2 -25 -6 -53 -9 -27 -4 -87 -20 -132 -35 -398 -137
-625 -562 -519 -975 14 -54 42 -128 61 -164 20 -35 34 -70 31 -77 -2 -7 -40
-57 -84 -111 -87 -109 -274 -387 -276 -410 -1 -11 58 -39 194 -95 107 -43 196
-79 197 -79 2 0 24 42 49 93 66 133 186 347 195 347 4 0 39 -16 79 -36 262
-129 588 -97 830 84 48 36 146 138 182 190 60 87 114 216 136 322 9 47 9 245
-1 294 -63 327 -339 598 -662 652 -41 6 -222 14 -227 9z"/>
<path d="M2807 8544 c-1 -1 -49 -4 -107 -8 -58 -3 -116 -8 -130 -10 -14 -3
-47 -7 -73 -11 -203 -25 -425 -93 -613 -188 -460 -231 -748 -664 -820 -1232
-10 -78 -10 -340 -1 -430 50 -468 254 -1002 577 -1511 147 -231 366 -524 525
-700 166 -186 343 -365 495 -504 l90 -82 1 68 c0 38 2 78 4 90 3 13 -19 52
-66 114 -38 52 -106 150 -150 219 -45 70 -90 138 -100 153 -11 15 -19 30 -19
33 0 3 -12 24 -27 48 -45 71 -197 375 -246 492 -85 205 -153 412 -183 560 -31
154 -33 168 -41 260 -27 315 25 559 164 767 149 225 434 395 778 464 57 11 72
14 95 18 14 2 41 7 60 10 178 33 581 39 805 11 77 -9 157 -22 235 -35 103 -19
115 -21 200 -41 47 -11 96 -22 110 -25 51 -10 299 -86 410 -125 269 -96 634
-259 850 -379 36 -20 90 -50 120 -67 96 -52 335 -197 338 -205 2 -4 7 -8 12
-8 19 0 414 -272 570 -394 192 -149 448 -360 564 -466 548 -498 1004 -1017
1369 -1556 112 -166 257 -403 257 -420 0 -5 -13 -15 -28 -22 -46 -20 -157
-117 -211 -184 -49 -60 -117 -186 -140 -259 -32 -101 -44 -266 -27 -369 32
-196 158 -403 317 -521 67 -49 208 -121 264 -133 164 -37 282 -41 410 -12 242
53 444 212 550 433 60 125 78 207 79 348 1 243 -67 416 -225 573 -159 159
-350 240 -578 245 l-64 2 -59 145 c-32 80 -62 154 -67 165 -27 60 -195 396
-215 430 -12 22 -35 63 -51 90 -104 188 -440 686 -543 805 -7 8 -35 44 -63 79
-57 72 -240 293 -250 301 -3 3 -27 30 -54 60 -198 228 -565 598 -804 810 -40
36 -83 74 -96 85 -70 63 -101 90 -210 180 -66 54 -122 102 -125 105 -3 4 -79
63 -170 133 -91 70 -170 130 -175 135 -6 5 -89 65 -185 133 -227 163 -460 316
-674 443 -175 105 -203 121 -386 221 -98 54 -504 255 -514 255 -2 0 -37 15
-78 34 -213 99 -627 245 -795 281 -99 21 -215 44 -243 49 -35 5 -158 23 -215
31 -54 8 -421 24 -428 19z"/>
<path d="M6899 7796 c-2 -2 -62 -6 -134 -10 -71 -3 -141 -8 -155 -11 -13 -2
-54 -7 -90 -11 -36 -3 -76 -7 -90 -9 -14 -2 -47 -7 -75 -10 -27 -4 -57 -8 -65
-10 -8 -2 -35 -7 -60 -10 -47 -6 -275 -48 -325 -59 -5 -1 -37 -8 -70 -15 -33
-7 -63 -15 -68 -18 -4 -2 40 -35 98 -73 l105 -69 217 -1 c120 0 238 -2 263 -4
25 -3 81 -7 125 -10 44 -4 89 -8 100 -10 11 -2 49 -7 85 -11 84 -9 337 -61
420 -86 371 -114 620 -253 813 -453 108 -111 202 -262 249 -396 41 -118 57
-228 53 -370 -2 -74 -5 -146 -8 -160 -3 -14 -8 -42 -12 -62 -11 -63 -52 -199
-88 -293 -19 -49 -32 -92 -28 -95 14 -10 249 -307 348 -440 129 -173 279 -399
379 -569 l78 -134 79 84 c209 224 419 537 534 794 36 81 101 262 109 302 2 12
8 33 13 45 5 13 9 26 9 31 0 4 3 20 6 35 25 115 31 182 31 357 -1 190 -14 273
-70 442 -77 231 -219 448 -427 650 -192 187 -468 350 -779 458 -98 34 -129 44
-261 79 -123 33 -286 65 -418 81 -30 4 -64 9 -75 11 -10 2 -46 6 -80 9 -33 3
-82 8 -110 11 -59 6 -621 15 -626 10z"/>
<path d="M3443 6913 c-174 -503 -346 -1177 -419 -1647 -3 -21 -7 -46 -9 -55
-1 -9 -6 -36 -10 -61 -4 -25 -9 -54 -11 -65 -3 -18 -37 -267 -50 -370 -2 -22
-7 -51 -9 -65 -2 -14 -7 -63 -11 -110 -3 -47 -8 -93 -10 -103 -2 -10 -6 -55
-9 -100 -3 -45 -8 -102 -10 -127 -3 -39 -7 -102 -20 -350 -5 -81 -5 -631 0
-735 5 -124 16 -279 19 -283 2 -1 45 2 95 8 136 15 230 27 286 35 199 30 633
109 642 118 1 2 -13 64 -32 138 -28 113 -50 212 -71 337 -2 12 -6 34 -9 50
-17 83 -49 330 -60 452 -5 65 -14 191 -20 310 -7 114 -7 500 0 625 8 151 16
275 20 320 2 22 7 69 10 105 2 36 7 83 10 105 3 22 7 60 10 85 2 25 6 61 9 80
3 19 10 71 16 115 11 80 65 407 75 455 3 14 8 39 11 55 3 17 11 58 19 91 8 34
16 74 19 88 3 14 7 34 10 44 3 9 7 28 10 42 6 36 82 333 106 415 11 38 20 75
20 81 0 11 -84 27 -205 41 -22 2 -51 6 -65 8 -14 3 -88 7 -165 11 l-141 6 -51
-149z"/>
<path d="M4210 6944 c-11 -28 -109 -411 -116 -454 -3 -14 -9 -38 -14 -55 -5
-16 -12 -43 -14 -60 -3 -16 -19 -97 -36 -178 -16 -81 -32 -169 -36 -195 -3
-26 -8 -56 -10 -67 -7 -30 -51 -332 -58 -390 -4 -27 -8 -66 -11 -85 -6 -51
-17 -168 -30 -345 -10 -122 -18 -363 -18 -510 -1 -151 10 -491 17 -545 2 -14
7 -65 11 -115 4 -49 9 -93 11 -96 1 -3 5 -36 8 -72 3 -37 7 -70 9 -75 3 -4 8
-35 11 -69 4 -35 8 -68 11 -75 2 -7 6 -29 9 -48 11 -72 46 -239 75 -355 17
-66 31 -122 31 -124 0 -20 557 134 865 239 243 84 262 91 399 145 600 235
1245 594 1627 904 31 26 74 60 95 77 141 114 323 288 453 433 l75 83 -170 167
c-93 91 -209 202 -259 246 -49 44 -92 82 -95 85 -15 16 -222 190 -330 277
-745 599 -1620 1064 -2350 1248 -156 40 -149 39 -160 9z"/>
<path d="M7647 4798 c-19 -29 -252 -266 -338 -343 -651 -589 -1581 -1081
-2655 -1406 -74 -22 -142 -42 -152 -44 -9 -2 -57 -15 -107 -30 -49 -14 -148
-39 -220 -56 -71 -17 -139 -33 -150 -35 -11 -3 -31 -7 -45 -10 -21 -4 -54 -11
-95 -20 -5 -1 -46 -9 -90 -18 -44 -9 -102 -20 -130 -26 -27 -5 -68 -12 -90
-16 -68 -9 -99 -15 -115 -19 -8 -2 -35 -6 -60 -9 -25 -3 -54 -8 -65 -10 -11
-2 -47 -7 -80 -10 -33 -4 -71 -9 -85 -11 -23 -3 -98 -12 -175 -21 -16 -1 -66
-6 -110 -9 -44 -4 -96 -8 -115 -10 -233 -24 -918 -25 -926 0 -2 5 -5 46 -8 90
-5 88 -23 185 -37 199 -5 6 -9 18 -9 28 0 23 -52 127 -93 188 -113 165 -298
289 -502 336 -16 4 -87 8 -158 10 -109 2 -139 -1 -210 -21 -96 -28 -149 -47
-168 -60 -8 -6 -30 -19 -49 -29 -19 -11 -55 -35 -80 -54 -302 -238 -398 -645
-233 -992 137 -289 431 -467 753 -456 110 4 131 7 219 32 164 47 344 182 441
332 l31 49 77 -18 c65 -15 188 -38 292 -54 56 -9 209 -27 335 -41 233 -25 885
-24 1125 1 19 2 72 6 118 10 45 3 97 8 115 10 18 2 55 6 82 10 98 11 161 19
305 40 25 4 59 9 75 11 28 4 117 20 160 28 11 2 40 7 65 11 63 10 79 13 98 19
9 3 36 8 60 11 115 16 608 135 837 202 66 19 156 45 200 58 383 111 984 340
1395 532 194 91 649 325 685 353 6 5 37 23 70 41 33 18 86 50 118 71 32 21 61
38 64 38 3 0 31 17 62 38 30 20 60 39 66 42 26 13 255 171 255 176 0 18 -327
442 -431 559 -107 122 -142 160 -212 238 -44 48 -83 87 -87 87 -4 0 -14 -10
-23 -22z"/>
<path d="M7418 3172 c-61 -34 -68 -41 -79 -82 -31 -114 -137 -345 -212 -464
-20 -32 -157 -235 -215 -321 -315 -458 -634 -760 -957 -905 -39 -17 -79 -35
-90 -40 -39 -18 -155 -51 -230 -66 -55 -10 -259 -13 -325 -3 -191 27 -388 122
-557 268 -61 52 -174 173 -248 262 -32 39 -159 230 -190 286 -28 50 -31 52
-65 48 -19 -3 -57 -7 -84 -9 -26 -3 -65 -7 -85 -10 -20 -3 -67 -8 -106 -12
-38 -3 -83 -8 -100 -9 -16 -2 -70 -6 -120 -10 -49 -4 -106 -8 -125 -10 -60 -6
-299 -17 -440 -20 -74 -2 -148 -4 -163 -4 -23 -1 -27 -4 -22 -20 3 -11 8 -30
10 -43 12 -61 30 -133 62 -243 220 -765 645 -1355 1158 -1609 235 -117 413
-156 685 -152 96 2 198 8 225 14 28 7 61 14 75 16 38 7 61 13 110 26 25 7 47
12 50 13 55 6 415 174 446 208 9 10 21 19 26 19 9 0 129 84 174 122 291 243
494 475 716 818 272 418 492 914 652 1472 25 86 47 167 50 180 2 13 15 70 29
128 33 141 40 190 24 189 -7 0 -42 -17 -79 -37z"/>
</g>
</svg>
