<?xml version="1.0" encoding="utf-8"?>
<!-- Generator: Adobe Illustrator 19.0.0, SVG Export Plug-In . SVG Version: 6.00 Build 0)  -->
<svg version="1.1" id="Layer_1" xmlns="http://www.w3.org/2000/svg" xmlns:xlink="http://www.w3.org/1999/xlink" x="0px" y="0px"
	 viewBox="0 0 324 93.4" style="enable-background:new 0 0 324 93.4;" xml:space="preserve">
<style type="text/css">
	.st0{fill-rule:evenodd;clip-rule:evenodd;fill:#CFCFCF;}
	.st1{clip-path:url(#SVGID_2_);fill:url(#SVGID_3_);}
	.st2{clip-path:url(#SVGID_5_);fill:url(#SVGID_6_);}
	.st3{clip-path:url(#SVGID_8_);fill:url(#SVGID_9_);}
	.st4{fill-rule:evenodd;clip-rule:evenodd;fill:url(#SVGID_10_);}
</style>
<path class="st0" d="M318.5,53.5l0.1-1.6c0-3.7-1.4-6.2-4.2-7.4c-0.9-0.4-2.1-0.6-3.4-0.6c-1.3,0-2.5,0.3-3.6,0.8
	c-1.1,0.5-2,1.2-2.8,2.1c-1.6,1.8-2.6,4.1-2.7,6.8H318.5z M320.5,42.4c1.1,1.1,1.9,2.4,2.6,4.1c0.6,1.6,0.9,3.4,0.9,5.2
	c0,1.8-0.2,3.9-0.6,6.4h-21.2c0.4,2.5,1.4,4.4,3,5.8c1.6,1.4,3.7,2.1,6.6,2.1c3.8,0,7.3-0.7,10.4-2.1l1,4.4c-2.1,1.2-5.1,2-9,2.4
	c-1.1,0.1-2.5,0.2-4.2,0.2c-1.7,0-3.5-0.4-5.4-1c-1.9-0.7-3.5-1.7-4.7-3.1c-2.5-2.7-3.7-6.6-3.7-11.7c0-4.5,1.5-8.3,4.4-11.4
	c3-3.1,6.7-4.6,11.2-4.6C315.4,39.1,318.3,40.2,320.5,42.4z M285,22.6h5.8v37.2c0,2.1,0.1,3.5,0.4,4.1c0.6,1.3,1.5,2.2,2.9,2.5
	l-0.9,3.7c-3.2,0.4-5.4-0.4-6.7-2.5c-1-1.6-1.6-4.1-1.6-7.5V22.6z M280.5,63.7l1.1,4.3c-2.5,1.9-6.3,2.8-11.2,2.8
	c-4.7,0-8.4-1.4-11.1-4.3c-2.6-2.8-3.9-6.6-3.9-11.5c0-4.5,1.5-8.3,4.4-11.4c3-3.1,6.7-4.6,11.2-4.6c4,0,7.3,0.9,9.8,2.8l-2,4.6
	c-2.3-1.7-5.1-2.6-8.4-2.6c-2.8,0-5.1,1.1-6.8,3.2c-1.6,2-2.5,4.6-2.5,7.6c0,3.2,0.9,5.9,2.6,8c1.8,2.2,4.3,3.3,7.5,3.3
	C274.3,65.9,277.4,65.2,280.5,63.7z M233.5,56.1c-1.9,0.7-3.3,1.5-4.1,2.4c-0.8,0.9-1.2,1.8-1.2,2.8c0,1,0.1,1.7,0.4,2.3
	c0.3,0.5,0.7,0.9,1.1,1.3c1,0.7,2.1,1.1,3.4,1.1c1.3,0,2.4-0.1,3.5-0.4c1-0.3,2-0.6,2.9-1.1c1.7-0.9,3.1-1.9,4.2-3.2v-6.6
	C238.7,54.9,235.4,55.4,233.5,56.1z M244.4,66.3c-3.7,3-7.6,4.5-11.7,4.5c-2.9,0-5.3-0.8-7.2-2.3c-2.1-1.6-3.1-3.8-3.1-6.4
	c0-5.4,3.6-9,10.8-10.8c2.9-0.7,6.4-1.1,10.5-1.2c-0.1-3.3-1.7-5.3-4.9-5.9c-1-0.2-2-0.3-2.9-0.3c-0.9,0-1.7,0-2.4,0.1
	c-0.7,0.1-1.4,0.2-2.1,0.3c-1.6,0.3-3,0.7-4.1,1.1l-1.6-4.3c2.9-1.4,6.3-2.1,10.3-2.1c6.3,0,10.4,2,12.4,6c0.7,1.4,1,3,1,4.9v9.7
	c0,2.1,0.1,3.5,0.5,4.1c0.5,1.3,1.5,2.2,2.9,2.5l-0.9,3.7C248.1,70.6,245.6,69.3,244.4,66.3z M219.3,46.1c-1.2-0.7-2.5-1.1-3.8-1.1
	c-1.3,0-2.4,0.3-3.2,1c-0.8,0.6-1.6,1.5-2.2,2.5c-1.2,1.9-2.1,4.2-2.5,6.7v15.1h-5.8V39.7h4.8l1,5.6c1.6-2.9,3.6-4.8,6-5.7
	c0.9-0.3,1.7-0.5,2.4-0.5c0.7,0,1.3,0,1.6,0c0.3,0,0.7,0.1,1,0.1c0.7,0.2,1.3,0.4,2.1,0.7L219.3,46.1z M190.8,53.5l0.1-1.6
	c0-3.7-1.4-6.2-4.2-7.4c-0.9-0.4-2.1-0.6-3.4-0.6c-1.3,0-2.5,0.3-3.6,0.8c-1.1,0.5-2,1.2-2.8,2.1c-1.6,1.8-2.6,4.1-2.7,6.8H190.8z
	 M192.9,42.4c1.1,1.1,1.9,2.4,2.6,4.1c0.6,1.6,0.9,3.4,0.9,5.2c0,1.8-0.2,3.9-0.6,6.4h-21.2c0.4,2.5,1.4,4.4,3,5.8
	c1.6,1.4,3.7,2.1,6.6,2.1c3.8,0,7.3-0.7,10.4-2.1l1,4.4c-2.1,1.2-5.1,2-9,2.4c-1.1,0.1-2.5,0.2-4.2,0.2c-1.7,0-3.5-0.4-5.4-1
	c-1.9-0.7-3.5-1.7-4.7-3.1c-2.5-2.7-3.7-6.6-3.7-11.7c0-4.5,1.5-8.3,4.4-11.4c3-3.1,6.7-4.6,11.2-4.6
	C187.8,39.1,190.7,40.2,192.9,42.4z M160.3,53.5l0.1-1.6c0-3.7-1.4-6.2-4.2-7.4c-0.9-0.4-2.1-0.6-3.4-0.6c-1.3,0-2.5,0.3-3.6,0.8
	c-1.1,0.5-2,1.2-2.8,2.1c-1.6,1.8-2.6,4.1-2.7,6.8H160.3z M162.3,42.4c1.1,1.1,1.9,2.4,2.6,4.1c0.6,1.6,0.9,3.4,0.9,5.2
	c0,1.8-0.2,3.9-0.6,6.4h-21.2c0.4,2.5,1.4,4.4,3,5.8c1.6,1.4,3.7,2.1,6.6,2.1c3.8,0,7.3-0.7,10.4-2.1l1,4.4c-2.1,1.2-5.1,2-9,2.4
	c-1.1,0.1-2.5,0.2-4.2,0.2c-1.7,0-3.5-0.4-5.4-1c-1.9-0.7-3.5-1.7-4.7-3.1c-2.5-2.7-3.7-6.6-3.7-11.7c0-4.5,1.5-8.3,4.4-11.4
	c3-3.1,6.7-4.6,11.2-4.6C157.2,39.1,160.1,40.2,162.3,42.4z M115.9,55.6c4.1,0,7.4-1,9.8-3.1c2.5-2.2,3.8-5.2,3.8-9.1
	c0-3.8-1.4-6.6-4.2-8.6c-2.5-1.8-5.9-2.7-10.2-2.7h-10.6v23.5H115.9z M98.9,27H116c5.8,0,10.4,1.3,13.8,3.9
	c3.7,2.8,5.6,6.8,5.6,12.1c0,5.5-2,9.9-5.9,13.1c-3.7,3.1-8.5,4.6-14.4,4.6h-10.6v9.5h-5.6V27z"/>
<path class="st0" d="M36.5,29.8c-3.2,11.1-4.6,24.8-1.4,36c11.4-2.6,24.4-8.2,32-17.2C59.1,40.3,47.8,32.3,36.5,29.8"/>
<g>
	<defs>
		<path id="SVGID_1_" d="M79.8,53.3c6.8-7,10.8-17.1,2.6-25c-6.2-6-19-7.6-31.9-4.5c0.7,0.4,1.4,0.9,2,1.3
			c16.1-0.7,24.3,7,20.2,16.9c-0.1,0.3-0.2,0.5-0.3,0.8C75.1,46,77.7,49.5,79.8,53.3 M13.9,72c18.1,4.3,44.9-3.2,60.8-14.5
			c-2-2.8-4.3-5.6-6.7-8.1C56.5,62.8,32.2,70,14.8,68.9c0-0.2,0-0.4,0-0.5c0-4.1-3.3-7.4-7.4-7.4c-4.1,0-7.4,3.3-7.4,7.4
			c0,4.1,3.3,7.4,7.4,7.4C10.2,75.8,12.6,74.3,13.9,72z"/>
	</defs>
	<clipPath id="SVGID_2_">
		<use xlink:href="#SVGID_1_"  style="overflow:visible;"/>
	</clipPath>
	<linearGradient id="SVGID_3_" gradientUnits="userSpaceOnUse" x1="-11.6079" y1="90.0987" x2="79.2321" y2="23.7087">
		<stop  offset="0" style="stop-color:#E5E5E5"/>
		<stop  offset="1" style="stop-color:#939393"/>
	</linearGradient>
	<rect y="20.7" class="st1" width="90.6" height="55.7"/>
</g>
<g>
	<defs>
		<path id="SVGID_4_" d="M25.4,74.5c2.1,10.7,9.9,22.3,22.4,18c8.6-3,16.1-14.7,18.8-28.5c-0.5,0.3-1,0.5-1.5,0.8
			c-1,3.5-2.4,5.2-4.6,8.4c-6.5,9.3-14.8,11.3-20.6,4.5c-1.1-1.2-2-2.6-2.8-4C33.2,74.2,29.2,74.5,25.4,74.5 M29.9,29
			c-4.4,12.1-6.4,26.4-5.5,38.5c3.2-0.3,6.3-0.8,9.4-1.5c-3.1-10.9-2.1-24.5,1.4-36.5C33.5,29.2,31.7,29,29.9,29z M39.5,11.5
			c-1.3,1.5-2.4,3.1-3.5,4.9c1.3,0.5,2.5,1,3.7,1.5c0.7-1.4,1.4-2.8,2.2-4.1c0.2,0.1,0.3,0.2,0.5,0.3c3.7,1.9,8.1,0.4,10-3.3
			c1.9-3.7,0.4-8.1-3.3-10C45.4-1,41,0.4,39.1,4.1C37.9,6.5,38.1,9.4,39.5,11.5z"/>
	</defs>
	<clipPath id="SVGID_5_">
		<use xlink:href="#SVGID_4_"  style="overflow:visible;"/>
	</clipPath>
	<linearGradient id="SVGID_6_" gradientUnits="userSpaceOnUse" x1="45.9909" y1="-30.4691" x2="44.3409" y2="106.9509">
		<stop  offset="0" style="stop-color:#E5E5E5"/>
		<stop  offset="1" style="stop-color:#939393"/>
	</linearGradient>
	<rect x="23.5" y="-1" class="st2" width="43" height="97.8"/>
</g>
<g>
	<defs>
		<path id="SVGID_7_" d="M82,61C75.6,43,53.8,24.2,35.4,17.5c-10.4-3.8-25-3.2-27.5,10.1c-1.7,8.9,4.6,21.2,15.2,30.5l0,0l0,0l0,0
			l0,0l0,0c0-0.5,0-1.1,0.1-1.6C16.8,48.3,9,31.1,24.7,28.2C44,24.6,68.8,44.1,78.9,61.9c-0.2,0.1-0.3,0.2-0.5,0.3
			C75,64.4,74,69,76.3,72.4c2.2,3.4,6.8,4.4,10.3,2.2c3.4-2.2,4.4-6.8,2.2-10.3C87.2,62,84.6,60.8,82,61"/>
	</defs>
	<clipPath id="SVGID_8_">
		<use xlink:href="#SVGID_7_"  style="overflow:visible;"/>
	</clipPath>
	<linearGradient id="SVGID_9_" gradientUnits="userSpaceOnUse" x1="61.3609" y1="100.9435" x2="40.7109" y2="11.0735">
		<stop  offset="0" style="stop-color:#E5E5E5"/>
		<stop  offset="1" style="stop-color:#939393"/>
	</linearGradient>
	<rect x="6.2" y="13.6" class="st3" width="84.8" height="63.2"/>
</g>
<linearGradient id="SVGID_10_" gradientUnits="userSpaceOnUse" x1="40.3245" y1="37.7797" x2="65.7294" y2="76.0505">
	<stop  offset="0" style="stop-color:#000000;stop-opacity:0"/>
	<stop  offset="0.4638" style="stop-color:#000000;stop-opacity:0.4638"/>
	<stop  offset="1" style="stop-color:#000000"/>
	<stop  offset="1" style="stop-color:#000000"/>
</linearGradient>
<path class="st4" d="M36.5,29.8c-2,6.9-3.3,14.7-3.2,22.3c10.1-0.8,19.3-4.6,26.2-10.5C52.6,36.2,44.6,31.6,36.5,29.8z"/>
</svg>
